/* XPM */
static char *_b882788c44e4249d0eb9a9c8012b96eJwPreYUsaC65fNpV[] = {
/* columns rows colors chars-per-pixel */
"32 32 39 1 ",
"  c black",
". c #7C6E3D",
"X c #857541",
"o c #867742",
"O c #8D7D45",
"+ c #968549",
"@ c #99874C",
"# c #9C8A4C",
"$ c #9C8A4D",
"% c #9D8A4D",
"& c #A38F50",
"* c #C2AC5F",
"= c #C7B062",
"- c #C9B263",
"; c #CBB464",
": c #CEB765",
"> c #D1B966",
", c #D3BB68",
"< c #D3BD6F",
"1 c #DEC46D",
"2 c #DFC66E",
"3 c #DFC775",
"4 c #DFC875",
"5 c #D6C178",
"6 c #E2C86F",
"7 c #E8CD72",
"8 c #EACF73",
"9 c #EDD273",
"0 c #EED373",
"q c #ECD074",
"w c #ECD174",
"e c #EDD174",
"r c #EFD375",
"t c #EFD475",
"y c #F0D576",
"u c #F2D677",
"i c #F5D978",
"p c #F6DA79",
"a c #F8DC7A",
/* pixels */
">262221166161161161161161116161,",
"2r0qqqqq8y8888y888y8y888e8yy78r3",
"2qqqqqqqr8qyry8y8y88y8yy8y8q0qq3",
"1qqqyaaaappapppapaapappaaapyqqq4",
"2qrt*o+oOOOOOOOOOOOOOOOOOOo:tqq4",
"2qqa.                      %aq04",
"2qqao                      &pq04",
"1qrao                      &aq04",
"1qqaX                      @aqq4",
"1q0ao    7t788r8r7r7t7ww7r7qtqq4",
"60qao    tyyyyyyrrtttt90ttrqwwq4",
"20qao    7rr888yqqqqqqwwrqqqww04",
"1q0ao    tr88888qqq9wwwwwwwwwwr4",
"1qqao    7yr8ey8qqwwwwwwwwwwww04",
"1qqao    7y8yy88wwwwwwwwwwwwq9q4",
"10qaX    yy8888ywwwwwwwwwwww9qq4",
"2w8ao    rrrww8rwwwwwwwwwwwwwwr3",
"1rrao    8w8wwwrwwwwwwwwwwwwwwq3",
"1rraX    rrwww88wwwwww88wwwwqqq4",
"67wao    rrwww8rwwww8rr8wwww9q04",
"17rpo    rrrtwwtwwtwwwrr8rwwww04",
"1rrao    ypriytyytiyutuuuyytww94",
"27rpo    ;;;;;;;;;;;;;;;;;=6tw94",
"1rrpX                      @aw94",
"1rqao                      &aww3",
"18qao                      &prq3",
"1qqa.                      %p0q4",
"1qqy-#%%#%%#%%%%%%##%%##%%+,tq04",
"1rwwtpppiiiapaipaappiiiaiap0q904",
"1wwwtqqqqq9qq9qqqqqqqq9wqqqqqqw4",
"1qrrqqqqq00q0qwq0qq9q0990qwr0w04",
"<4446444444444444444444444444445"
};
