/* XPM */
static char *_f575825093a484ca9345a4e0bf38e71kNDvjzE3Y4RjWRke[] = {
/* columns rows colors chars-per-pixel */
"48 48 35 1 ",
"  c black",
". c #000700",
"X c #001702",
"o c #001B02",
"O c #001F03",
"+ c #002B04",
"@ c #003305",
"# c #003805",
"$ c #004C07",
"% c #005008",
"& c #005508",
"* c #005808",
"= c #00790C",
"- c #00880D",
"; c #00930F",
": c #00940F",
"> c #00A010",
", c #00AD11",
"< c #00D415",
"1 c #00E116",
"2 c #00E617",
"3 c #00E817",
"4 c #00EB17",
"5 c #00FF16",
"6 c #00F018",
"7 c #00F118",
"8 c #00F418",
"9 c #00FF1A",
"0 c #00FF1E",
"q c #16D629",
"w c #16D62A",
"e c #2CDA3E",
"r c #13EA29",
"t c #16E82B",
"y c #16E82C",
/* pixels */
"<4242242422424224242422424224242422424224242424q",
"49999999999999999999999999999999999999999999995y",
"29999999999999999999999999999999999999999999999y",
"49999999999999999999999999999999999999999999995y",
"49999999999999999999999999999999999999999999995y",
"29999999999999999999999999999999999999999999999y",
"29999997888888887888888888888878888888887999999y",
"4999991                                  999995y",
"2999992                                  999999y",
"4999992                                  099995y",
"2999992                                  099995y",
"2999992                                  999999y",
"4999992                                  099999y",
"2999992      X%$$$$$$$$$$$$$$$$$$$$$$$$$#999995y",
"4999992      *099009099009099009099009099999999y",
"2999992      %099999999999999999999999999999995y",
"4999992      %999999999999999999999999999999999y",
"2999992      %099999999999999999999999999999995y",
"2999992      %099999999999999999999999999999999y",
"4999992      &099909990990999909990990999999995y",
"2999992      +;-------------------------=999995y",
"4999992                                  099999y",
"2999992                                  999999y",
"2999992                                  099995y",
"4999992                                  999999y",
"2999992                                  099995y",
"4999992                                  999995y",
"2999992      @,>>>>>>>>>>>>>>>>>>>>>>>>>:999999y",
"4999992      &099099909999099099999009990999999y",
"2999992      %099999999999999999999999999999995y",
"2999992      %999999999999999999999999999999999y",
"4999992      %099999999999999999999999999999995y",
"2999992      %099999999999999999999999999999999y",
"4999992      *090090099009909009099090090999999y",
"2999992      .Oooooooooooooooooooooooooo 999995y",
"2999992                                  999999y",
"4999992                                  099995y",
"2999992                                  999999y",
"4999992                                  099995y",
"2999992                                  999999y",
"4999991                                  999999y",
"29999999099990990999909999099099990990999999999y",
"29999999999999999999999999999999999999999999995y",
"49999999999999999999999999999999999999999999999y",
"29999999999999999999999999999999999999999999995y",
"49999999999999999999999999999999999999999999999y",
"49955995595995999559959559959555599595599595555t",
"qtttttttttttttttttttttttttttttttttttttttttttttre"
};
