/* XPM */
static char *_ea04e18932e4ed0e7a208732d6c45cdQePCKlZDyoQK8lvv[] = {
/* columns rows colors chars-per-pixel */
"64 64 23 1 ",
"  c #9A9A9A",
". c #9D9D9D",
"X c #A2A2A2",
"o c gray65",
"O c gray67",
"+ c gray68",
"@ c #B1B1B1",
"# c #B7B7B7",
"$ c #BBBBBB",
"% c #BCBCBC",
"& c gray77",
"* c gray78",
"= c #CACACA",
"- c gray81",
"; c LightGray",
": c gray86",
"> c #E1E1E1",
", c #E4E4E4",
"< c gray91",
"1 c #F3F3F3",
"2 c gray96",
"3 c #F8F8F8",
"4 c white",
/* pixels */
"*,>>>>>>>>>>>>>>>>>>>>>>>>>>>>>>>>>>>>>>>>>>>>>>>>>>>>>>>>>>>>>=",
",44444444444444444444444444444444444444444444444444444444444444,",
">44444444444444444444444444444444444444444444444444444444444444>",
">44444444444444444444444444444444444444444444444444444444444444>",
">44444444444444444444444444444444444444444444444444444444444444>",
">44444444444444444444444444444444444444444444444444444444444444>",
">44444444444444444444444444444444444444444444444444444444444444>",
">44444444444444444444444444444444444444444444444444444444444444>",
">44444444444444444444444444444444444444444444444444444444444444>",
">44444444+OO+OO++OO++O+O+O+O+O+OO++O+OO+O++O+OO++O+OOo*44444444>",
">44444444oXoXooXXooXXoXoXoXoXoXooXXoXooXoXXoXooXXoXoXX$44444444>",
">44444444oXooooooooooooooooooooooooooooooooooooooooooX%44444444>",
">44444444ooooooooooooooooooooooooooooooooooooooooooooX%44444444>",
">44444444oXooooooooooooooooooooooooooooooooooooooooooX%44444444>",
">44444444oXooooooooooooooooooooooooooooooooooooooooooX%44444444>",
">44444444ooooooooooooooooooooooooooooooooooooooooooooX%44444444>",
">44444444oooooooooooooooooooooooooooooooooooooooooooOX$44444444>",
">44444444oXooooooo.......X..... ...X... ... ..  ......#44444444>",
">44444444oooooooo.<211111,112111111<11111111111111111,144444444>",
">44444444oXoooooo.244444444444444444444444444444444444444444444>",
">44444444oooooooo.144444444444444444444444444444444444444444444>",
">44444444oXoooooo.144444444444444444444444444444444444444444444>",
">44444444oooooooo.144444444444444444444444444444444444444444444>",
">44444444oXoooooo.144444444444444444444444444444444444444444444>",
">44444444oooooooo.144444444444444444444444444444444444444444444>",
">44444444oXoooooo.144444444444444444444444444444444444444444444>",
">44444444oooooooo.344444444444444444444444444444444444444444444>",
">44444444oXooooooo$*&&&&&&&&&&&**&&&&&&&&&&*&&&&&&&&&*;44444444>",
">44444444oXoooooooXXX.XXXX.XXXX.X.XXX XXX.XXXXX. XXXX.$44444444>",
">44444444ooooooooooooooooooooooooooooooooooooooooooooX$44444444>",
">44444444ooooooooooooooooooooooooooooooooooooooooooooX$44444444>",
">44444444oXooooooooooooooooooooooooooooooooooooooooooX%44444444>",
">44444444ooooooooooooooooooooooooooooooooooooooooooooX$44444444>",
">44444444oXooooooooooooooooooooooooooooooooooooooooooX$44444444>",
">44444444oXooooooooooooooooooooooooooooooooooooooooooX$44444444>",
">44444444oooooooooXXX.X.XX.X.XX.X.X.X.XX.XX.X.XXX.X.X.#44444444>",
">44444444ooooooooX=-----------------------------------:44444444>",
">44444444oXoooooo 344444444444444444444444444444444444444444444>",
">44444444oooooooo.144444444444444444444444444444444444444444444>",
">44444444oXoooooo.144444444444444444444444444444444444444444444>",
">44444444oooooooo.144444444444444444444444444444444444444444444>",
">44444444oXoooooo.144444444444444444444444444444444444444444444>",
">44444444oooooooo.144444444444444444444444444444444444444444444>",
">44444444oXoooooo.144444444444444444444444444444444444444444444>",
">44444444oooooooo.144444444444444444444444444444444444444444444>",
">44444444oXoooooo.144444444444444444444444444444444444444444444>",
">44444444oooooooo.144444444444444444444444444444444444444444444>",
">44444444oXoooooo.144444444444444444444444444444444444444444444>",
">44444444oXoooooo.144444444444444444444444444444444444444444444>",
">44444444oooooooo.144444444444444444444444444444444444444444444>",
">44444444oooooooo.144444444444444444444444444444444444444444444>",
">44444444oXoooooo.144444444444444444444444444444444444444444444>",
">44444444oooooooo.244444444444444444444444444444444444444444444>",
">44444444XXXXoXXX 144444444444444444444444444444444444444444444>",
">44444444########@244444444444444444444444444444444444444444444>",
">44444444444444444444444444444444444444444444444444444444444444>",
">44444444444444444444444444444444444444444444444444444444444444>",
">44444444444444444444444444444444444444444444444444444444444444>",
">44444444444444444444444444444444444444444444444444444444444444>",
">44444444444444444444444444444444444444444444444444444444444444>",
">44444444444444444444444444444444444444444444444444444444444444>",
">44444444444444444444444444444444444444444444444444444444444444>",
",44444444444444444444444444444444444444444444444444444444444444>",
"=,>>>>>>>>>>>>>>>>>>>>>>>>>>>>>>>>>>>>>>>>>>>>>>>>>>>>>>>>>>>>>;"
};
