/* XPM */
static char *_14f119d48714484a2cc0cdfa6b90c92SsQIdSzHrP06TkSb[] = {
/* columns rows colors chars-per-pixel */
"48 48 33 1 ",
"  c black",
". c #070300",
"X c #110700",
"o c #150800",
"O c #1E0C00",
"+ c #210D00",
"@ c #2E1200",
"# c #451B00",
"$ c #4C1E00",
"% c #4D1F00",
"& c #502000",
"* c #552200",
"= c #582300",
"- c #853500",
"; c #923A00",
": c #9E3F00",
"> c #A14000",
", c #D45400",
"< c #E15A00",
"1 c #E65C00",
"2 c #E85D00",
"3 c #EB5E00",
"4 c #D66316",
"5 c #D86518",
"6 c #F46100",
"7 c #F86300",
"8 c #FF6500",
"9 c #FF6700",
"0 c #FF6800",
"q c #FF6E00",
"w c #FF7000",
"e c #FF7600",
"r c #E86A16",
/* pixels */
",31311222222222222222222222222222222222222222224",
"39999989899889899889899889899889899889899889898r",
"19999898989998989898989998989898989998989898988r",
"39998989899989898989999989898989899989898989898r",
"29899898999999999899999999999898999999909898988r",
"29988999999999999999999999999999999999909999898r",
"29999986777777777777777777777777777777776999988r",
"299999<                                  q99898r",
"2989991                                  q98988r",
"2998991                                  q89898r",
"2989991                                  w98988r",
"2998901                                  w89898r",
"2989891                                  w99988r",
"2998991      o$##################$.      w99898r",
"2989991      =eqqqqqqqqqqqqqqqqqqe+      q99988r",
"2998991      &q999999999999999999wO      q99898r",
"2999901      &q999989999989998989qO      w99988r",
"2989901      &q999899999899989899wO      w99898r",
"2999991      &q999980990999999989wO      q99988r",
"2999991      *e09q990q00999q9q990e+      q99898r",
"2998991      @:;;;;;;;;;;;;;;;;;;>X      w99988r",
"2989991                                  w99898r",
"2998991                                  w99988r",
"2989901                                  w99898r",
"2998991                                  q89898r",
"2989891                                  q98988r",
"2998901                                  w89898r",
"2989901      @:;;;;;;;;;;;;;;;;;;;;;;;;;-098988r",
"2999991      *e900q099q9q99900q099q9q999q999898r",
"2989991      &q90990899999990990899999999999988r",
"2999901      &q99999989899989999989899989898898r",
"2999901      &999999898999899999898999898989988r",
"2998991      &q99898989898989898989898989898988r",
"2989991      &q98989898989898989898989898989898r",
"2998991      &q99898989898989898989898989898988r",
"2989901      &q98989898989898989898989898989898r",
"2998991      &q99898989898989898989898989898988r",
"2989991      &q98989898989898989898989898989898r",
"2998991      &q99898989898989898989898989898988r",
"2989891      &q98989898989898989898989898989898r",
"298999<      #q99898989898989898898989899898988r",
"29989996777767998989898989898989989898988989898r",
"29899999999999999898989898989898898989899898988r",
"29989889999988998989898989898989989898988989898r",
"29899898989898989898989898989898898989898989988r",
"29988989898989898989898989898989989898989898898r",
"29899889989899989889989889989889988989988989989r",
",22222222222131122222222222222222222222222222225"
};
