/* XPM */
static char *cf1ea3f6e686450ad305a2d6a5dea718jPAZRiJ8fbSPMsd6[] = {
/* columns rows colors chars-per-pixel */
"64 64 29 1 ",
"  c black",
". c #131313",
"X c #191919",
"o c #1E1E1E",
"O c #3A3A3A",
"+ c #5A5A5A",
"@ c gray36",
"# c #606060",
"$ c #656565",
"% c gray46",
"& c gray47",
"* c #7E7E7E",
"= c #818181",
"- c gray59",
"; c #9F9F9F",
": c #AEAEAE",
"> c #B2B2B2",
", c gray74",
"< c #C1C1C1",
"1 c gray77",
"2 c #CBCBCB",
"3 c #CECECE",
"4 c LightGray",
"5 c gray85",
"6 c gray92",
"7 c #ECECEC",
"8 c #F4F4F4",
"9 c gray98",
"0 c white",
/* pixels */
"                                                               o",
"                                                               o",
"                                                               o",
"                                                               o",
"                                                               o",
"                                                               o",
"                                                               o",
"                                                               o",
"                                                               o",
"         677777770o        >87777779%        +06777778:        o",
"         000000000o        100000000=        #00000000<        o",
"         000000000o        <00000000*        #00000000,        o",
"         000000000o        <00000000*        #00000000,        o",
"         000000000o        <00000000*        #00000000,        o",
"         000000000o        <00000000*        #00000000,        o",
"         000000000o        <00000000*        #00000000,        o",
"         000000000o        <00000000*        #00000000,        o",
"         000000000o        <00000000*        #00000000,        o",
"         000000000o        <00000000*        #00000000,        o",
"         000000000o        <00000000*        #00000000,        o",
"         000000000o        <00000000*        #00000000,        o",
"         000000000o        <00000000*        #00000000,        o",
"         000000000o        <00000000*        #00000000,        o",
"         000000000o        <00000000*        #00000000,        o",
"         000000000o        <00000000*        #00000000,        o",
"         000000000o        <00000000*        #00000000,        o",
"         000000000o        <00000000*        #00000000,        o",
"         000000000o        <00000000*        #00000000,        o",
"         000000000o        <00000000*        #00000000,        o",
"         000000000o        <00000000*        #00000000,        o",
"         000000000o        <00000000*        #00000000,        o",
"         000000000o        <00000000*        #00000000,        o",
"         000000000o        <00000000*        #00000000,        o",
"         000000000o        <00000000*        #00000000,        o",
"         000000000o        <00000000*        #00000000,        o",
"         000000000o        <00000000*        #00000000,        o",
"         000000000o        <00000000*        #00000000,        o",
"         000000000o        <00000000*        #00000000,        o",
"         000000000o        <00000000*        #00000000,        o",
"         000000000o        <00000000*        #00000000,        o",
"         000000000o        <00000000*        #00000000,        o",
"         000000000o        <00000000*        #00000000,        o",
"         000000000o        <00000000*        #00000000,        o",
"         000000000o        <00000000*        @00000000,        o",
"         000000000.        ,00000000&        +00000000,        o",
"         000000000&#$$$$$$+500000000>@$$$$$$@;00000000,        o",
"         000000000000000000000000000000000000000000000,        o",
"         000000000000000000000000000000000000000000000,        o",
"         000000000000000000000000000000000000000000000,        o",
"         000000000000000000000000000000000000000000000,        o",
"         000000000000000000000000000000000000000000000,        o",
"         000000000000000000000000000000000000000000000,        o",
"         000000000000000000000000000000000000000000000,        o",
"         000000000000000000000000000000000000000000000<        o",
"         232222222222222222222222222222222222222222224-        o",
"                                                               o",
"                                                               o",
"                                                               o",
"                                                               o",
"                                                               o",
"                                                               o",
"                                                               o",
"                                                               X",
"ooooooooooooooooooooooooooooooooooooooooooooooooooooooooooooooXO"
};
