/* XPM */
static char *_bf84d0d2d3145f7cc6e9a715c2e49e8A5g0uT3IpedKiPyu[] = {
/* columns rows colors chars-per-pixel */
"64 64 63 1 ",
"  c black",
". c #080809",
"X c #0C0C0E",
"o c #101012",
"O c #111316",
"+ c #15161A",
"@ c #24262C",
"# c #32353E",
"$ c #353842",
"% c #393D48",
"& c #3C404B",
"* c #3D424D",
"= c #424652",
"- c #444955",
"; c #464B58",
": c #4F5463",
"> c #515664",
", c #565C6B",
"< c #575C6C",
"1 c #595F6F",
"2 c #6C7487",
"3 c #6F778B",
"4 c #70778B",
"5 c #737B90",
"6 c #788096",
"7 c #798298",
"8 c #8D97B0",
"9 c #909AB4",
"0 c #949EB8",
"q c #95A0BA",
"w c #97A1BC",
"e c #99A4BF",
"r c #9FA8BF",
"t c #9BA5C1",
"y c #9EA9C5",
"u c #A0ABC8",
"i c #ACB3C7",
"p c #A6B1CF",
"a c #A9B5D2",
"s c #A9B5D3",
"d c #ABB7D5",
"f c #B0BAD5",
"g c #B1BBD5",
"h c #B2BDD7",
"j c #B3BDD7",
"k c #C0CDEF",
"l c #C1CFF1",
"z c #C2CFF2",
"x c #C3D0F3",
"c c #C4D2F5",
"v c #C6D3F6",
"b c #C7D4F7",
"n c #C9D6FA",
"m c #C9D7FA",
"M c #CAD7FB",
"N c #CCDAFE",
"B c #CEDDFF",
"V c #CFDDFF",
"C c #D0DEFF",
"Z c #D1DFFF",
"A c #D3E1FF",
"S c #D4E2FF",
"D c #D6E4FF",
/* pixels */
"qdssssssssssssssssssssssssssssssssssssssssssssssssssssssssssssdr",
"dczzzxzzzzzzzzzzzzzzzzzzzzzzzzzzzzzzzzzzzzzzzzzzzzzzzzzzzzzzzzcj",
"szkkkkkkkkkkkkkkkkkkkkkkkkkkkkkkkkkkkkkkkkkkkkkkkkkkkkkkkkkkkkzf",
"szkkkkkkkkkkkkkkkkkkkkkkkkkkkkkkkkkkkkkkkkkkkkkkkkkkkkkkkkkkkkzf",
"szkkkkkkkkkkkkkkkkkkkkkkkkkkkkkkkkkkkkkkkkkkkkkkkkkkkkkkkkkkkkkj",
"szkkkkkkkkkkkkkkkkkkkkkkkkkkkkkkkkkkkkkkkkkkkkkkkkkkkkkkkkkkkkkf",
"sxkkkkkkkkkkkkkkkkkkkkkkkkkkkkkkkkkkkkkkkkkkkkkkkkkkkkkkkkkkkkxj",
"skkkkkkkkkkkkkkkkkkkkkkkkkkkkkkkkkkkkkkkkkkkkkkkkkkkkkkkkkkkkkzf",
"szkkkkkkkkkkkkkkkkkkkkkkkkkkkkkkkkkkkkkkkkkkkkkkkkkkkkkkkkkkkkkj",
"szkkkkkkkkkkkkkkkkkkkkkkkkkkkkkkkkkkkkkkkkkkkkkkkkkkkkkkkkkkkklf",
"skkkkkkkkkkkkkkkkkkkkkkkkkkkkkkkkkkkkkkkkkkkkkkkkkkkkkkkkkkkkklg",
"sxkkkkkkkkkkkkkkkkkkkkkkkkkkkkkkkkkkkkkkkkkkkkkkkkkkkkkkkkkkkklg",
"sxkkkkkkkkkkkkkkkkkkkkkkkkkkkkkkkkkkkkkkkkkkkkkkkkkkkkkkkkkkkklg",
"szkkkkkkkkkkkkCAAAAAAASSSSAASSSCAAAAAAAAAAAAAAAAANkkkkkkkkkkkklg",
"sxkkkkkkkkkkkC@O++++++++++++++++++++++++++++++++X:Nkkkkkkkkkkklg",
"skkkkkkkkkkkkSX                                  *Vkkkkkkkkkkklg",
"skkkkkkkkkkkkSo                                  *Akkkkkkkkkkkzf",
"sxkkkkkkkkkkkSo                                  =Vkkkkkkkkkkkkj",
"sxkkkkkkkkkkkSo                                  =Vkkkkkkkkkkkzf",
"skkkkkkkkkkkkSo                                  *Vkkkkkkkkkkkkj",
"sxkkkkkkkkkkkSo                                  $Vkkkkkkkkkkkxf",
"axkkkkkkkkkkkSo      6puuuuuuuuyuuuuuuuuuuuuyyuuydzkkkkkkkkkkkxf",
"akkkkkkkkkkkkSo      0Nccccccccccccccccccbbccccccckkkkkkkkkkkkkf",
"sxkkkkkkkkkkkSo      9bkkkkkkzkkkkkkkkkkkkkkkkkkzkkkkkkkkkkkkkkj",
"sxkkkkkkkkkkkSo      9bkkkkkkkkkkkkkkkkkkkkkkkkkkkkkkkkkkkkkkkkf",
"alkkkkkkkkkkkSo      9bkkkkkkkkkkkkkkkkkkkkkkkkkkkkkkkkkkkkkkkkj",
"sxkkkkkkkkkkkSo      9bkkkkkkkkkkkkkkkkkkkkxkkkkkkkkkkkkkkkkkkxf",
"skkkkkkkkkkkkSo      tDCVVVCVVVVCCCCVVVVVVVCVVBBCmkkkkkkkkkkkkkj",
"alkkkkkkkkkkkSo      #-=============*-=========-&2mkkkkkkkkkkklf",
"axkkkkkkkkkkkSo                                  &Akkkkkkkkkkkkj",
"axkkkkkkkkkkkSo                                  *Vkkkkkkkkkkklf",
"akkkkkkkkkkkkSo                                  *Vkkkkkkkkkkkkj",
"szkkkkkkkkkkkSo                                  *Czkkkkkkkkkkzf",
"szkkkkkkkkkkkSo                                  =Ckkkkkkkkkkkxf",
"szkkkkkkkkkkkSo                                  $Ckkkkkkkkkkkkj",
"szkkkkkkkkkkkSo      <6555555555555555555555555548ckkkkkkkkkkkkf",
"sxkkkkkkkkkkkSo      wAnnnnnnnnnNnnnNnnnmNnnnnnnNckkkkkkkkkkkkxf",
"skkkkkkkkkkkkSo      9czzkkzkkzkkkkkkkkxkkkkkkzkkzkkkkkkkkkkkkxf",
"szkkkkkkkkkkkSo      9bkkkkkkkkkkkkkkkkkkkkkkkkkkkkkkkkkkkkkkkzf",
"sxkkkkkkkkkkkSo      9bkkkkkkkkkkkkkkkkkkkkkkkkkkkkkkkkkkkkkkklg",
"skkkkkkkkkkkkSo      9cxxkkkkkzkkkkkzkkkkkkkzkkkkkkkkkkkkkkkkklg",
"sxkkkkkkkkkkkSo      eSNNNNNNNNNNNNNNNNNNNNNNNNNVnkkkkkkkkkkkklg",
"sxkkkkkkkkkkkSo      =1,,,,,,<,,,<,,,,,,,<,,,,,,:6bkkkkkkkkkkklg",
"skkkkkkkkkkkkSo                                  %Vkkkkkkkkkkklg",
"sxkkkkkkkkkkkSo                                  *Vxkkkkkkkkkklg",
"skkkkkkkkkkkkSo                                  =Vkkkkkkkkkkklg",
"slkkkkkkkkkkkSo                                  =Vkkkkkkkkkkklg",
"sxkkkkkkkkkkkSo                                  *Vkkkkkkkkkkklg",
"sxkkkkkkkkkkkS.                                  *Vkkkkkkkkkkkkf",
"akkkkkkkkkkkkN>-;-;;;;;-;;;;;;;;;;;;;;;-;;;;;;;;=3nkkkkkkkkkkkkj",
"slkkkkkkkkkkkkNCVNVVVVVNVNVVNVNVVVVNVVNVVVVVVVVVVnkkkkkkkkkkkkxf",
"sxkkkkkkkkkkkkkkkkkkkkzkkkkkkkxkkkkkkkkkkzkkkkkkkkkkkkkkkkkkkkkj",
"akkkkkkkkkkkkkkkkkkkkkkkkkkkkkkkkkkkkkkkkkkkkkkkkkkkkkkkkkkkkkxf",
"sxkkkkkkkkkkkkkkkkkkkkkkkkkkkkkkkkkkkkkkkkkkkkkkkkkkkkkkkkkkkkxf",
"sxkkkkkkkkkkkkkkkkkkkkkkkkkkkkkkkkkkkkkkkkkkkkkkkkkkkkkkkkkkkkkf",
"alkkkkkkkkkkkkkkkkkkkkkkkkkkkkkkkkkkkkkkkkkkkkkkkkkkkkkkkkkkkkkj",
"sxkkkkkkkkkkkkkkkkkkkkkkkkkkkkkkkkkkkkkkkkkkkkkkkkkkkkkkkkkkkklf",
"sxkkkkkkkkkkkkkkkkkkkkkkkkkkkkkkkkkkkkkkkkkkkkkkkkkkkkkkkkkkkkkj",
"akkkkkkkkkkkkkkkkkkkkkkkkkkkkkkkkkkkkkkkkkkkkkkkkkkkkkkkkkkkkklf",
"sxkkkkkkkkkkkkkkkkkkkkkkkkkkkkkkkkkkkkkkkkkkkkkkkkkkkkkkkkkkkkkj",
"sxkkkkkkkkkkkkkkkkkkkkkkkkkkkkkkkkkkkkkkkkkkkkkkkkkkkkkkkkkkkklf",
"alkkkkkkkkkkkkkkkkkkkkkkkkkkkkkkkkkkkkkkkkkkkkkkkkkkkkkkkkkkkkkj",
"sxklxkkxzkkzzzxkllllllllllllllxkzzkzxkzzllllllllllllllllllllllxj",
"rjfffffffffffffffffffffffffffffffffffffffffffffffffffffffffffffi"
};
