/* XPM */
static char *_0477aa4354a4a66fe60c8cb85786847hEQgSvDaIzvMt05l[] = {
/* columns rows colors chars-per-pixel */
"64 64 71 1 ",
"  c black",
". c #020502",
"X c #050804",
"o c #0A0E08",
"O c #0A1107",
"+ c #435335",
"@ c #475A38",
"# c #495B3A",
"$ c #4C5D3A",
"% c #4D5E3D",
"& c #4F623D",
"* c #50623E",
"= c #526440",
"- c #556843",
"; c #576A45",
": c #586B45",
"> c #666F50",
", c #6B6F53",
"< c #737C5A",
"1 c #747C5A",
"2 c #7A8260",
"3 c #819D65",
"4 c #8FA36F",
"5 c #98AE76",
"6 c #9CB17C",
"7 c #9CBB7C",
"8 c #A4BA81",
"9 c #A4BB82",
"0 c #ACC287",
"q c #A6C08A",
"w c #B2D18D",
"e c #B4D88E",
"r c #B5D88F",
"t c #B6D88E",
"y c #B9DE8F",
"u c #B3C99C",
"i c #B9D791",
"p c #BBDF92",
"a c #BAD89A",
"s c #BBD89A",
"d c #BCD89A",
"f c #BDDC9A",
"g c #C1DD9F",
"h c #C0DE9F",
"j c #C7E59B",
"k c #CFEFA2",
"l c #CFFFA3",
"z c #D0FFA3",
"x c #D0FFA5",
"c c #D2FFA5",
"v c #D3FFA6",
"b c #D7FFA7",
"n c #D7FFA8",
"m c #D9FFAA",
"M c #D8FFAB",
"N c #DBFFAB",
"B c #DDFFAB",
"V c #DDFFAD",
"C c #DFFFAD",
"Z c #E0FFB0",
"A c #E3FFB1",
"S c #E4FFB3",
"D c #EBFFB9",
"F c #EEFFBB",
"G c #EFFFBC",
"H c #F0FFBC",
"J c #FAFFC3",
"K c #F9FFC4",
"L c #FEFFC6",
"P c #FEFFC7",
"I c #FFFFC9",
/* pixels */
"7peeeeeeetettttttttteiteieetetteieeteetttttttettttttttteetetrep8",
"pZmmmmBmmmmmNmNMmmmmmmmmmmmmmmmmmmmmBmmNmmmmmmmmNmMNMNMmmNNNMmZh",
"emxxvxvxxvvxvlvvzvvzxxvxvvvxvxvxxvxvvllvxvvxxvxvxvlvxvvvlvxvxxNa",
"eVxvvvvvvvvvvvvvvvvvxvvvvvvvvvvvvvvvvvvvvvvvxvvvvvvvvvvvxvvvnlna",
"emvvvvvvvvvvvvvvvvvvvvvvvvvvvvvvvvvvvvvvvvvvvvvvvvvvvvvvvvvvxvNa",
"eBxvvvvvvvvvvvvvvvvvvvvvvvvvvvvvvvvvvvvvvvvvvvvvvvvvvvvvvvvvvxNa",
"emxvvvvvvvvvvvvvvvvvvvvvvvvvvvvvvvvvvvvvvvvvvvvvvvvvvvvvvvvvvvna",
"eBxvvvvvvvvvvvvvvvvvvvvvvvvvvvvvvvvvvvvvvvvvvvvvvvvvvvvvvvvvvlna",
"tmvvvvvvvvvvvvvvvvvvvvvvvvvvvvvvvvvvvvvvvvvvvvvvvvvvvvvvvvvvvxnd",
"tmvvvvvvvvvvvvvvvvvvvvvvvvvvvvvvvvvvvvvvvvvvvvvvvvvvvvvvvvvvvvnd",
"tmxvvvvvvvvvvvvvvvvvvvvvvvvvvvvvvvvvvvvvvvvvvvvvvvvvvvvvvvvvvxmd",
"eVvvvvvvvvvvvvvvvvvxvvvvvvvvvvvvvvvvvvvxvvvvvvvxvvvvvvvvvvvvvxnd",
"tmxxvvvvvvvvvllxzzzxzxzxzxzzxzzxxxlzzzxzzzzzzzzzzxxvvvvvvvvvvxbd",
"tmxvvvvvvvvvvlKIILLLLLLLLLLLLILLLILIILLLILILLLLILFzvvvvvvvvvvvmd",
"emvvvvvvvvvvlJOXoooooooooooooooooooooooooooooooo *Fzvvvvvvvvvvbd",
"tVxvvvvvvvxxlI                                   $Hzvvvvvvvvvxbd",
"tmvvvvvvvvvvxI.                                  *Hxvvvvvvvvvxmd",
"eNxvvvvvvvvvlI.                                  *Hzvvvvvvvvvvmd",
"eNlvvvvvvvvvlI.                                  &Hxvvvvvvvvvvmd",
"tNlvvvvvvvvvlL.                                  &Hzvvvvvvvvvxvd",
"tMvvvvvvvvvvxL.                                  &Hxxxvvvvvvvvbd",
"tNvvvvvvvvvvlI.      4jiiiiiiiiiiiiiiiiiik>      &Hzvvvvvvvvvxbd",
"tNxvvvvvvvvxlI.      0HVCCZCVCCCZCZVCVVVVK2      &Hzvvvvvvvvvvbd",
"tnvvvvvvvvvxzL.      8ZzxxxxxxzvxxxxxxxxlD<      &Hxvvvvvvvvvxmd",
"tMlxvvvvvvvvlL.      8SvvvvvvvvvvvvvvvvvxF<      *Hzvvvvvvvvvvbd",
"tMvvvvvvvvvvlI.      8SvvvvvvvvvvvvvvvvvzD1      *Hzvvvvvvvvvzbd",
"tNxvvvvvvvvvlI.      8AzvvvvvvvvvvvvvvvvxF1      *Hzvvvvvvvvvvmd",
"tNvvvvvvvvvvlI.      7AvvvvvvvvvvvvvvvvvzF1      *Hzvvvvvvvvvxbd",
"tNxvvvvvvvvvxI.      8AvvvvvvvvvvvvvvvvvxF1      *Hxvvvvvvvvvvbd",
"tMvvvvvvvvvvlI.      8SxvvvvvvvvvvvvvvvvzD1      *Hzvvvvvvvvvxbd",
"tMxvvvvvvvvvlI.      8ZvvvvvvvvvvvvvvvvvxF1      &Hxvvvvvvvvvvbd",
"tMxxvvvvvvvvlI.      8SxvvvvvvvvvvvvvvvvzF1      &Hzvvvvvvvvvxmd",
"tmvvvvvvvvvvxL.      8AvvvvvvvvvvvvvvvvvxF<      &Hxvvvvvvvvvxmd",
"tmvvvvvvvvvvlI.      7AzvvvvvvvvvvvvvvvvzD1      &Hzvvvvvvvvvvmd",
"tmxvvvvvvvvvlI.      8AvvvvvvvvvvvvvvvvvxF1      &Hxvvvvvvvvvxbd",
"eVvvvvvvvvxxzL.      8AvvvvvvvvvvvvvvvvvzF1      &Hzvvvvvvvvvxmd",
"tmxxvvvvvvvvlI.      8SvvvvvvvvvvvvvvvvvxF<      &Hxxxvvvvvvvxbd",
"tmxvvvvvvvvvlI.      8SvvvvvvvvvvvvvvvvvzD1      &Hzvvvvvvvvvvbd",
"emvvvvvvvvvvlL.      8SvvvvvvvvvvvvvvvvvxF1      &Hzvvvvvvvvvvbd",
"tVxvvvvvvvvvlI.      7AxvvvvvvvvvvvvvvvvzF1      &Hxvvvvvvvvvxmd",
"tmvvvvvvvvvvxI.      8SbvvvvvvvvvvvvvvvvxF1      *Hzvvvvvvvvvvbd",
"eNxvvvvvvvvvlI.      8SvvvvvvvvvvvvvvvvvxH1      *Hzvvvvvvvvvzbd",
"eNlvvvvvvvvvlI.      7AvvvvvvvvvvvvvvvvvlF1      *Hzvvvvvvvvvvmd",
"tNlvvvvvvvvvlL.      7AvvvvvvvvvvvvvvvvvlF1      *Hzvvvvvvvvvxbd",
"tMvvvvvvvvvvxLX      8SbvvvvvvvvvvvvvvvvxF1      &Hxvvvvvvvvvvbd",
"tNvvvvvvvvvvzI       8SvvvvvvvvvvvvvvvvvzF1      *Hzvvvvvvvvvxbd",
"tNxvvvvvvvvxzIX      8SvvvvvvvvvvvvvvvvvzF<      &Hxvvvvvvvvvvbd",
"tnvvvvvvvvvxzLX      7AcvvvvvvvvvvvvvvvvzF<      *Hzvvvvvvvvvxmd",
"tMlxvvvvvvvvxI       6SvvvvvvvvvvvvvvvvvxH,      +Hxvvvvvvvvvxmd",
"tMvvvvvvvvvvxG=-::::@wVxvvvvvvvvvvvvvvvvvZ5#::::%3Zxvvvvvvvvvvbd",
"tNxvvvvvvvvvxxGGHHFHGBzvvvvvvvvvvvvvvvvvvzCHFFHHHSxvvvvvvvvvvxbd",
"tNvvvvvvvvvvvxllzzzzxxxxvvvvvvvvvvvvvvvvvxzxzxzzxzvvvvvvvvvvvxmd",
"tNxvvvvvvvvvvvvvvvvvvvvvvvvvvvvvvvvvvvvvvvvvvvvvvvvvvvvvvvvvvxbd",
"tMvvvvvvvvvvvvvvvvvvvvvvvvvvvvvvvvvvvvvvvvvvvvvvvvvvvvvvvvvvvvbd",
"tMxvvvvvvvvvvvvvvvvvvvvvvvvvvvvvvvvvvvvvvvvvvvvvvvvvvvvvvvvvvvbd",
"tMxxvvvvvvvvvvvvvvvvvvvvvvvvvvvvvvvvvvvvvvvvvvvvvvvvvvvvvvvvvxmd",
"tmvvvvvvvvvvvvvvvvvvvvvvvvvvvvvvvvvvvvvvvvvvvvvvvvvvvvvvvvvvvvbd",
"tmzvvvvvvvvvvvvvvvvvvvvvvvvvvvvvvvvvvvvvvvvvvvvvvvvvvvvvvvvvvzbd",
"tmvvvvvvvvvvvvvvvvvvvvvvvvvvvvvvvvvvvvvvvvvvvvvvvvvvvvvvvvvvvvmd",
"eBzvvvvvvvvvvvvvvvvvvvvvvvvvvvvvvvvvvvvvvvvvvvvvvvvvvvvvvvvvvxbd",
"tmxxvvvvvvvvvvvvvvvvvvvvvvvvvvvvvvvvvvvvvvvvvvvvvvvvvvvvvvvvvvbd",
"tmxvzvvvvzvvxvxvzvvvvzvvzvzvzvvvvxvxvvvxvvzvzvvzvzvvvvzvzvvxxvbd",
"yVmmbbbbbbbbbbmvbbbbbbbbbbbbbbbbbbbbbbbbbbbbbbbbbbbbbbbbbbbbbbBf",
"qgdddddddddddddddddddddddddddddddddddddddddddddddddddddddddddddu"
};
