/* XPM */
static char *_f4b09cd58cc479eee7e635249729d685X40SlJH8m90Z2xx[] = {
/* columns rows colors chars-per-pixel */
"64 64 62 1 ",
"  c black",
". c #050303",
"X c #080605",
"o c #0A0705",
"O c #0F0B08",
"+ c #120D09",
"@ c #140E0B",
"# c #17100C",
"$ c #1B130F",
"% c #2F221A",
"& c #38281E",
"* c #422F23",
"= c #473326",
"- c #4B3628",
"; c #4F382A",
": c #50392B",
"> c #533B2C",
", c #573E2F",
"< c #5B4131",
"1 c #5D4332",
"2 c #694B38",
"3 c #6B4C3A",
"4 c #6F4F3C",
"5 c #72513D",
"6 c #795741",
"7 c #7D5943",
"8 c #7E5A44",
"9 c #865F48",
"0 c #90674D",
"q c #956A50",
"w c #976C51",
"e c #996D52",
"r c #9F7255",
"t c #A17357",
"y c #A37457",
"u c #BF8966",
"i c #C78D6B",
"p c #CD936E",
"a c #CA997A",
"s c #D29671",
"d c #D59872",
"f c #DC9D76",
"g c #E1A079",
"h c #E4A27A",
"j c #D1A68B",
"k c #E1A986",
"l c #E3AB88",
"z c #E4AB88",
"x c #FFB689",
"c c #FFB789",
"v c #FFB88A",
"b c #FFBA8C",
"n c #FFBB8C",
"m c #FFBD8E",
"M c #FFBF90",
"N c #FFC292",
"B c #FFC393",
"V c #FFC493",
"C c #FFC594",
"Z c #FFC896",
"A c #FFCA98",
"S c #FFCD9A",
/* pixels */
"ihggggggggggggggggggggggggggggggggggggggggggggggggggggggggggggga",
"hbvvvvvvvvvvvvvvvvvvvvvvvvvvvvvvvvvvvvvvvvvvvvvvvvvvvvvvvvvvvvvz",
"gvxxxxxxxxxxxxxxxxxxxxxxxxxxxxxxxxxxxxxxxxxxxxxxxxxxxxxxxxxxxxvk",
"gvxxxxxxxxxxxxxxxxxxxxxxxxxxxxxxxxxxxxxxxxxxxxxxxxxxxxxxxxxxxxvk",
"gvxxxxxxxxxxxxxxxxxxxxxxxxxxxxxxxxxxxxxxxxxxxxxxxxxxxxxxxxccxxvk",
"gvxxxxxxxxxxxxxxxxxxxxxxxxxxxxxxxxxxxxxxxxxxxxxxxxxxxxxxxxxcxxxk",
"gvxxxxxxxxxxxxxxxxxxxxxxxxxxxxxxxxxxxxxxxxxxxxxxxxxxxxxxxxccvxvk",
"gvxxxxxxxxxxxxxxxxxxxxxxxxxxxxxxxxxxxxxxxxxxxxxxxxxxxxxxxxcccvxk",
"gvxxxxxxxxxxxxxxxxxxxxxxxxxxxxxxxxxxxxxxxxxxxxxxxxxxxxxxxxxxxxck",
"gvxxxxxxxxxxxxxxxxxxxxxxxxxxxxxxxxxxxxxxxxxxxxxxxxxxxxxxxxxxxxck",
"gvxxxxxxxxxxxxxxxxxxxxxxxxxxxxxxxxxxxxxxxxxxxxxxxxxxxxxxxxxxxxck",
"gvxxxxxxxxxxxxxxxxxxxxxxxxxxxxxxxxxxxxxxxxxxxxxxxxxxxxxxxxxxxxck",
"gvxxxxxxxxxxxxxxxxxxxxxxxxxxxxxxxxxxxxxxxxxxxxxxxxxxxxxxxxxxxxck",
"gvxxxxxxxxxxxxCZZZZZZZZZZZZZZZZZZZZZZZZZZZZZZZZZNNxxxxxxxxxxxxck",
"gvxxxxxxxxxxxC%#$$$$$$$$$$$$$$$$$$$$$$$$$$$$$$$$+2mxxxxxxxxxxxck",
"gvxxxxxxxxxxxZO                                  >Nxxxxxxxxxxxck",
"gvxxxxxxxxxxxA@                                  ,Cxxxxxxxxxxxxk",
"gvxxxxxxxxxxxZ@                                  ,Nxxxxxxxxxxxvk",
"gvxxxxxxxxxxxZ@                                  ,Cxxxxxxxxxxxxk",
"gvxxxxxxxxxxxA@                                  ,Vxxxxxxxxxxxvk",
"gvxxxxxxxxxxxZ@                                  =Vvxxxxxxccxxxk",
"gvxxxxxxxxxxxA@      rfdddddddddddddddddddddddddsgvxxxxxxxxcxxvk",
"gvxxxxxxxxxxxA@      iNbvmvmbbbmmvmvbmmvmvbmvmmbmvxxxxxxxxccxvxk",
"gvxxxxxxxxxxxZ@      umxxxvxxxxxxxxvxxxxxxxxxxxxxxxxxxxxxxccvxvk",
"gvxxxxxxxxxxxZ@      umxxxxxxxxxxxxxxxxxxxxxxxxxxxxxxxxxxxxxxxck",
"gvxxxxxxxxxxxA@      ubxxxxxxxxxxxxxxxxxxxxxxxxxxxxxxxxxxxxxxxck",
"gvxxxxxxxxxxxZ@      umxxxxxxxxxxxxxxxxxxxxxxxxxxxxxxxxxxxxxxxck",
"gvxxxxxxxxxxxA@      pAVCNCCVVVVVVVVVVVVVVVVVVVVNxxxxxxxxxxxxxck",
"gvxxxxxxxxxxxA@      *<,,,,,,,,,,,,,,,,,,,,,,,,,:0mxxxxxxxxxxxck",
"gvxxxxxxxxxxxZ@                                  ;Cxxxxxxxxxxxck",
"gvxxxxxxxxxxxZ@                                  ,Vxxxxxxxxxxxck",
"gvxxxxxxxxxxxA@                                  ,Vxxxxxxxxxxxck",
"gvxxxxxxxxxxxA@                                  ,Vxxxxxxxxxxxxk",
"gvxxxxxxxxxxxZ@                                  ,Vxxxxxxxxxxxvk",
"gvxxxxxxxxxxxZ.                                  ,Vxxxxxxxxxvxvk",
"gvxxxxxxxxxxxmtweeeeeeeeeeeeeeeeeeeeeeeeey-      ,Vxxxxxxxxxcvxk",
"gvxxxxxxxxxxxxmmMMMMMMMMMMMMMMMMMMMMNmMMmZ9      ,Vxxxxxxxxxccck",
"gvxxxxxxxxxxxxxxxxxxxxxxxxxxxxxxxxxxxxxxxN7      ,Vxxxxxxxxxccck",
"gvxxxxxxxxxxxxxxxxxxxxxxxxxxxxxxxxxxxxxxxN7      ,Vxxxxxxxxxxcck",
"gvxxxxxxxxxxxxxxxxxxxxxxxxxxxxxxxxxxxxxxxN7      ,Vxxxxxxxxxxcck",
"gvxxxxxxxxxxxxxxxxxxxxxxxxxxxxxxxxxxxxxxxN7      ,Nxxxxxxxxxxxck",
"gvxxxxxxxxxxxxNNNNNNNNNNNNNNNNNNNNNNNNNNNS9      ,Nxxxxxxxxxxxck",
"gvxxxxxxxxxxxM8455555555555555555555555556&      ,Nxxxxxxxxxxxck",
"gvxxxxxxxxxxxAX                                  ,Mxxxxxxxxxxxck",
"gvxxxxxxxxxxxZ@                                  ,Vxxxxxxxxxxxck",
"gvxxxxxxxxxxxA@                                  ,Vxxxxxxxxxxxck",
"gvxxxxxxxxxxxA@                                  ,Vxxxxxxxxxxxck",
"gvxxxxxxxxxxxZ@                                  ,Vxxxxxxxxxxxck",
"gvxxxxxxxxxxxZX                                  ;Vxxxxxxxxxxxvk",
"gvxxxxxxxxxxxN2111111111111111111111111111111111,qmxxxxxxxxxxxxk",
"gvxxxxxxxxxxxxNNNNNMNCNNBBCNBBBBBBBBBBNBNCCNNNMNVmxxxxxxxxxxxxvk",
"gvxxxxxxxxxxxxxxxxxxxxxxxxxxxxxxxxxxxxxxxxxxxxxxxxxxxxxxxxxxxxxk",
"gvxxxxxxxxxxxxxxxxxxxxxxxxxxxxxxxxxxxxxxxxxxxxxxxxxxxxxxxxxcxxvk",
"gvxxxxxxxxxxxxxxxxxxxxxxxxxxxxxxxxxxxxxxxxxxxxxxxxxxxxxxxxxcxxxk",
"gvxxxxxxxxxxxxxxxxxxxxxxxxxxxxxxxxxxxxxxxxxxxxxxxxxxxxxxxxccvxvk",
"gvxxxxxxxxxxxxxxxxxxxxxxxxxxxxxxxxxxxxxxxxxxxxxxxxxxxxxxxxcvxvxk",
"gxxxxxxxxxxxxxxxxxxxxxxxxxxxxxxxxxxxxxxxxxxxxxxxxxxxxxxxxxxxxxck",
"gxxxxxxxxxxxxxxxxxxxxxxxxxxxxxxxxxxxxxxxxxxxxxxxxxxxxxxxxxxxxxck",
"gxxxxxxxxxxxxxxxxxxxxxxxxxxxxxcxxxxxxxxxxxxxxxxxxxxxxxxxxxxxxxck",
"gvxxxxxxxxxxxxxxxxxxxxxxxxxxxxccxxxxxxxxxxxxxxxxxxxxxxxxxxxxxxck",
"gvxxxvxxxxxxxxxxxxxxxxxxxxxxxvxcxxxxxxxxxxxxxxxxxxxxxxxxxxxcxxck",
"gvxxvxxxxxxxxxxxxxxxxxxxxxxxvxvcxxxxxxxxxxxxxxxxxxxxxxxxxxxcxxck",
"gvvxxvvxxvxvvxxvccccccccccccxvvxxvxvvxxvccccccccccccccccccccccck",
"alkkkkkkkkkkkkkkkkkkkkkkkkkkkkkkkkkkkkkkkkkkkkkkkkkkkkkkkkkkkkkj"
};
