/* XPM */
static char *_03b4ec131764051aab7e17899bbc24bsm5X0xh4SlkF2SDT[] = {
/* columns rows colors chars-per-pixel */
"64 64 51 1 ",
"  c black",
". c #090909",
"X c gray6",
"o c gray8",
"O c gray10",
"+ c gray14",
"@ c #2A2A2A",
"# c gray23",
"$ c #3F3F3F",
"% c gray25",
"& c #464646",
"* c #494949",
"= c gray30",
"- c #535353",
"; c #555555",
": c #585858",
"> c gray35",
", c gray38",
"< c #676767",
"1 c #6A6A6A",
"2 c #6D6D6D",
"3 c #747474",
"4 c gray48",
"5 c #7C7C7C",
"6 c #838383",
"7 c gray52",
"8 c gray56",
"9 c gray57",
"0 c #9A9A9A",
"q c gray62",
"w c gray63",
"e c gray65",
"r c gray67",
"t c #ACACAC",
"y c gray70",
"u c gray72",
"i c #BCBCBC",
"p c #C3C3C3",
"a c #C6C6C6",
"s c #CACACA",
"d c #CECECE",
"f c LightGray",
"g c #D5D5D5",
"h c #D8D8D8",
"j c gray87",
"k c #E4E4E4",
"l c #EEEEEE",
"z c gray95",
"x c gray96",
"c c #F8F8F8",
"v c white",
/* pixels */
"ihgggggggggggggggggggggggggggggggggggggggggggggggggggggggggggghp",
"hcxxxxxxxxxxxxxxxxxxxxxxxxxxxxxxxxxxxxxxxxxxxxxxxxxxxxxxxxxxxxxh",
"gxzzzzzzzzzzzzzzzzzzzzzzzzzzzzzzzzzzzzzzzzzzzzzzzzzzzzzzzzzzzzxh",
"gxzzzzzzzzzzzzzzzzzzzzzzzzzzzzzzzzzzzzzzzzzzzzzzzzzzzzzzzzzzzzxh",
"gxzzzzzzzzzzzzzzzzzzzzzzzzzzzzzzzzzzzzzzzzzzzzzzzzzzzzzzzzzzzzxg",
"gxzzzzzzzzzzzzzzzzzzzzzzzzzzzzzzzzzzzzzzzzzzzzzzzzzzzzzzzzzzzzxh",
"gxzzzzzzzzzzzzzzzzzzzzzzzzzzzzzzzzzzzzzzzzzzzzzzzzzzzzzzzzzzzzxh",
"gxzzzzzzzzzzzzzzzzzzzzzzzzzzzzzzzzzzzzzzzzzzzzzzzzzzzzzzzzzzzzxg",
"gxzzzzzzzzzzzzzzzzzzzzzzzzzzzzzzzzzzzzzzzzzzzzzzzzzzzzzzzzzzzzxh",
"gxzzzzzzzzzzzzzzzzzzzzzzzzzzzzzzzzzzzzzzzzzzzzzzzzzzzzzzzzzzzzxh",
"gxzzzzzzzzzzzzzzzzzzzzzzzzzzzzzzzzzzzzzzzzzzzzzzzzzzzzzzzzzzzzxg",
"gxzzzzzzzzzzzzzzzzzzzzzzzzzzzzzzzzzzzzzzzzzzzzzzzzzzzzzzzzzzzzxh",
"gxzzzzzzzzzzzzzzzzzzzzzzzzzzxzzzzzzzzzzzzzzzzzzzzzzzzzzzzzzzzzxh",
"gxzzzzzvvvvvvvvvvvvvvvvvvvvvczzzzzzvvvvvvvvvvvvvvvvvvvvvvzzzzzxg",
"gxzzzzv.OOOOOOOOOOOOOOOOOOO.yczzzzv5XOOOOOOOOOOOOOOOOOOo%vzzzzxh",
"gxzzzzv                     rczzzzv1                    +vzzzzxh",
"gxzzzzv                     tvzzzzv2                    @vzzzzxg",
"gxzzzzv                     tczzzzv2                    @vzzzzxg",
"gxzzzzv                     tvzzzzv2                    @vzzzzxh",
"gxzzzzv                     tvzzzzv2                    @vzzzzxg",
"gxzzzzv                     wvzzzzv2                    @vzzzzxh",
"gxzzzzv       udsssssssssssakxzzzzv2      <gssssf7      @vzzzzxh",
"gxzzzzv       kvccccccccccccxzzzzzv2      5vccccvw      @vzzzzxg",
"gxzzzzv       jxzzzzzzzzzzzzzzzzzzv2      4vzzzzvq      @vzzzzxh",
"gxzzzzv       jczzzzzzzzzzzzzzzzzzv2      4vzzzzvw      +vzzzzxg",
"gxzzzzv       jczzzzzzzzzzzzzzzzzzv2      4vzzzzcq      @vzzzzxg",
"gxzzzzv       jxzzzzzzzzzzzzzzzzzzv2      4vzzzzvq      @vzzzzxh",
"gxzzzzv       lvvvvvvvvvvvvvczzzzzv2      6vvvvvvt      @vzzzzxg",
"gxzzzzv       =;-----------&pczzzzv2      @:----;#      @vzzzzxh",
"gxzzzzv                     evzzzzv2                    @vzzzzxh",
"gxzzzzv                     rczzzzv2                    @vzzzzxg",
"gxzzzzv                     tvzzzzv2                    @vzzzzxh",
"gxzzzzv                     rvzzzzv2                    @vzzzzxg",
"gxzzzzv                     tczzzzv2                    @vzzzzxh",
"gxzzzzv                     tvzzzzv2                    Ovzzzzxh",
"gxzzzzv7999999989999q+      tczzzzv2      *0999999999998wczzzxxg",
"gxzzzzzvvvvvvvvvvvvvv$      tvzzzzv2      6vvvvvvvvvvcvvvzzzzzxg",
"gxzzzzzzzzzzzzzzzzzzv#      tczzzzv2      4vzzzzzzzzzzzzzzzzzzxh",
"gxzzzzzzzzzzzzzzzzzzv#      rvzzzzv2      4vzzzzzzzzzzzzzzzzzzxg",
"gxzzzzzzzzzzzzzzzzzzv#      rvzzzzv2      4vzzzzzzzzzzzzzzzzzzxh",
"gxzzzzzzzzzzzzzzzzzzv#      tvzzzzv2      4vzzzzzzzzzzzzzzzzzzxg",
"gxzzzzzvvvvvvvvvvvvvv%      rvzzzzv2      4vzzzzzzzzzzzzzzzzzzxg",
"gxzzzzv,2122221212123O      rczzzzv2      4vzzzzzzzzzzzzzzzzzzxh",
"gxzzzzv                     rvzzzzv2      4vzzzzzzzzzzzzzzzzzxxg",
"gxzzzzv                     tczzzzv2      4vzzzzzzzzzzzzzzzzzzxg",
"gxzzzzv                     tvzzzzv2      4vzzzzzzzzzzzzzzzzzzxh",
"gxzzzzv                     tvzzzzv2      4vzzzzzzzzzzzzzzzzzzxg",
"gxzzzzv                     tczzzzv2      4vzzzzzzzzzzzzzzzzzzxh",
"gxzzzzv                     rczzzzv<      3vzzzzzzzzzzzzzzzzzzxh",
"gxzzzzv=:::::::::::::::::::=aczzzxcw-::::-eczzzzzzzzzzzzzzzzzzxg",
"gxzzzzzvvvvvvvvvvvvvvvvvvvvvczzzzzzcvvvvvvcxzzzzzzzzzzzzzzzzzzxh",
"gxzzzzzzzzzzzzzzzzzzzzzzzzzzzzzzzzzzzzzzzzzzzzzzzzzzzzzzzzzzzzxh",
"gxzzzzzzzzzzzzzzzzzzzzzzzzzzzzzzzzzzzzzzzzzzzzzzzzzzzzzzzzzzzzxg",
"gxzzzzzzzzzzzzzzzzzzzzzzzzzzzzzzzzzzzzzzzzzzzzzzzzzzzzzzzzzzzzxh",
"gxzzzzzzzzzzzzzzzzzzzzzzzzzzzzzzzzzzzzzzzzzzzzzzzzzzzzzzzzzzzzxh",
"gxzzzzzzzzzzzzzzzzzzzzzzzzzzzzzzzzzzzzzzzzzzzzzzzzzzzzzzzzzzzxxg",
"gxzzzzzzzzzzzzzzzzzzzzzzzzzzzzzzzzzzzzzzzzzzzzzzzzzzzzzzzzzzzzxg",
"gxzzzzzzzzzzzzzzzzzzzzzzzzzzzzzzzzzzzzzzzzzzzzzzzzzzzzzzzzzzzzxh",
"gxzzzzzzzzzzzzzzzzzzzzzzzzzzzzzzzzzzzzzzzzzzzzzzzzzzzzzzzzzzzzxg",
"gxzzzzzzzzzzzzzzzzzzzzzzzzzzzzzzzzzzzzzzzzzzzzzzzzzzzzzzzzzzzzxh",
"gxzzzzzzzzzzzzzzzzzzzzzzzzzzzzzzzzzzzzzzzzzzzzzzzzzzzzzzzzzzzzxh",
"gxzzzzzzzzzzzzzzzzzzzzzzzzzzzzzzzzzzzzzzzzzzzzzzzzzzzzzzzzzzzzxg",
"hcxxxxxxxxxxxxxxxxxxxzxxxxxzxxxxxzxxxxxzxxxxxzxxxxxzxxxxxzxxxxch",
"phggghghggghghggghghghghghghghghghghghghhgghhghgghhghgghhghgghhs"
};
