/* XPM */
static char *_22b41dd20c149a0f2e80f8c0ebfd9b6RhMCib1LVNJUY4su[] = {
/* columns rows colors chars-per-pixel */
"64 64 56 1 ",
"  c black",
". c #090906",
"X c #0A0907",
"o c #0F0E0B",
"O c #13120D",
"+ c #14130E",
"@ c #171610",
"# c #1B1A13",
"$ c #201F17",
"% c #2F2D22",
"& c #383528",
"* c #3E3B2C",
"= c #454131",
"- c #494534",
"; c #4E4A38",
": c #4E4B38",
"> c #534E3B",
", c #56523E",
"< c #5A5640",
"1 c #5D5943",
"2 c #69644B",
"3 c #6B664C",
"4 c #726D51",
"5 c #767154",
"6 c #7A7457",
"7 c #7C7658",
"8 c #7D7759",
"9 c #867F5F",
"0 c #888161",
"q c #8B8463",
"w c #8B8563",
"e c #958D6A",
"r c #97906C",
"t c #BEB487",
"y c #BFB689",
"u c #C5BB8D",
"i c #C7BD8D",
"p c #CBC191",
"a c #CAC299",
"s c #D1CAA6",
"d c #E1D6A0",
"f c #E3D9A1",
"g c #E4D9A2",
"h c #E1D8A9",
"j c #E3D9A9",
"k c #E4DAAB",
"l c #FFF3B6",
"z c #FFF5B7",
"x c #FFF6B7",
"c c #FFF6B8",
"v c #FFF9BA",
"b c #FFFCBC",
"n c #FFFFC3",
"m c #FFFFC5",
"M c #FFFFC8",
"N c #FFFFCC",
/* pixels */
"igddddddddddddddddddddddddddddddddddddddddddddddddddddddddddddfa",
"gvccccccccccccccccccccccccccccccccccccccccccccccccccccccccccccvk",
"dcllllllllllllllllllllllllllllllllllllllllllllllllllllllllllllzh",
"dclllllllllllllllllllllllllllllllllllllllllllllllllllllllllllzzh",
"dcllllllllllllllllllllllllllllllllllllllllllllllllllllllllllllzh",
"dcllllllllllllllllllllllllllllllllllllllllllllllllllllllllllllzh",
"dcllllllllllllllllllllllllllllllllllllllllllllllllllllllllllzzzh",
"dclllllllllllllllllllllllllllllllllllllllllllllllllllllllllllzzh",
"dcllllllllllllllllllllllllllllllllllllllllllllllllllllllllllllzh",
"dcllllllllllllllllllllllllllllllllllllllllllllllllllllllllllllzh",
"dcllllllllllllllllllllllllllllllllllllllllllllllllllllllllllllzh",
"dclllllllllllllllllllllllllllllllllllllllllllllllllllllllllllzzh",
"dcllllllllllllllllllllllllllllllllllllllllzzllllllllllllllllllzh",
"dcllllllllllllmMMMMMMvllllllnMMMMMMbllllllbMMMMMmnllllllllllllzh",
"dclllllllllllm%@####.uvzllln1O####orbllllbwo####O2vzllllllllllzh",
"dclllllllllllMo      tbllllm=      0nzllln6      >mzlllllllllzzh",
"dclllllllllllN+      ybllllm-      wblllln8      ,mlllllllllllzh",
"dclllllllllllM+      ybllllm-      0nlllln8      ,nlllllllllllzh",
"dclllllllllllM@      ybllllm-      wbzlllb8      ,mlllllllllzzzh",
"dclllllllllllM@      ybllllm-      wnzllzn8      ,nllllllllllzzh",
"dclllllllllllM+      ybllllm-      wnzlllb8      ,nlllllllllllzh",
"dclllllllllllM+      ybllllm-      wblllln8      ,mlllllllllllzh",
"dclllllllllllM+      ybllllm-      wnzllln8      ,mllllllllllzzh",
"dclllllllllllM+      ybllllm-      wblllln8      ,nllllllllllzzh",
"dclllllllllllM@      ybllllm-      wmlllzn8      ,nlllllllllllzh",
"dclllllllllllM@      ybllllm-      0bzllzb8      ,nlllllllllllzh",
"dclllllllllllM+      ybllllm-      wnlllln8      ,nlllllllllllzh",
"dclllllllllllM+      ybllllm-      wblllln8      ,nllllllllllzzh",
"dclllllllllllM+      ybllllm-      0nlllzn8      ,mlllllllllllzh",
"dclllllllllllM+      ybllllm-      wnlllzb8      ,nlllllllllllzh",
"dclllllllllllM@      ybllllm-      wblllln8      ,mlllllllllllzh",
"dclllllllllllM@      ybllllm-      wnlllln8      ,nllllllllllzzh",
"dclllllllllllM+      ybllllm-      wnlllzn8      ,mlllllllllllzh",
"dclllllllllllM+      ybllllm-      wbzllzb8      ,nlllllllllllzh",
"dclllllllllllM+      ybllllm-      wnlllln8      ,mlllllllllzzzh",
"dclllllllllllM+      ybllllm-      wblllln8      ,nllllllllllzzh",
"dclllllllllllM@      ybllllm-      0nlllzn8      ,nlllllllllllzh",
"dclllllllllllM@      ybllllm-      wnlllzb8      ,mlllllllllllzh",
"dclllllllllllM+      ybllllm-      wblllln8      ,mllllllllllzzh",
"dclllllllllllM+      ybllllm-      wnlllln8      ,nllllllllllzzh",
"dclllllllllllN+      ybllllm-      wnlllln8      ,nlllllllllllzh",
"dclllllllllllM+      pMnnnnN;      eNnnnbN9      ,nlllllllllllzh",
"dclllllllllllM@      ,544448$      *644446&      ,nlllllllllllzh",
"dclllllllllllM@                                  ,nllllllllllzzh",
"dclllllllllllM+                                  ,mlllllllllllzh",
"dclllllllllllM+                                  ,nlllllllllllzh",
"dclllllllllllM+                                  ,mlllllllllllzh",
"dclllllllllllM+                                  ,nllllllllllzzh",
"dclllllllllllM.                                  ;nlllllllllllch",
"dclllllllllllm3<11111111111111111111111111111111,eblllllllllllzh",
"dcllllllllllllmnnnnnnnnnnnnnnnnnnnnnnnnnnnnnnnnnmbzllllllllllzzh",
"dclllllllllllllllllllllllllllllllllllllllllllllllllllllllllllzzh",
"dcllllllllllllllllllllllllllllllllllllllllllllllllllllllllllllzh",
"dcllllllllllllllllllllllllllllllllllllllllllllllllllllllllllllzh",
"dclllllllllllllllllllllllllllllllllllllllllllllllllllllllllllzzh",
"dclllllllllllllllllllllllllllllllllllllllllllllllllllllllllllzzh",
"dcllllllllllllllllllllllllllllllllllllllllllllllllllllllllllllzh",
"dzllllllllllllllllllllllllllllllllllllllllllllllllllllllllllllzh",
"dclllllllllllllllllllllllllllllllllllllllllllllllllllllllllllzzh",
"dclllllllllllllllllllllllllllllllllllllllllllllllllllllllllllzzh",
"dczllllllllllllllllllllllllllllllllllllllllllllllllllllllllzllzh",
"dclllllllllllllllllllllllllllllllllllllllllllllllllllllllllzllzh",
"gvzzzzzzzzzzzzzzzzzzzzzzzzzzzzzzzzzzzzzzzzzzzzzzzzzzzzzzzzzzzzzj",
"ahhhhhhhhhhhhhhhhhhhhhhhhhhhhhhhhhhhhhhhhhhhhhhhhhhhhhhhhhhhjjjs"
};
